# xmcd
#
# Track frame offsets: 
#        150
#        12252
#        25639
#        38893
#        50369
#        63820
#        77209
#        107937
#        121991
#        154073
#        167953
#        183304
#        195819
#        210167
#        222351
#        236694
#        249281
#        261435
#        274571
#        286719
#
# Disc length: 4019 seconds
#
# Revision: 0
# Processed by: cddbd v1.5.2PL0 Copyright (c) Steve Scherf et al.
# Submitted via: ExactAudioCopy v0.99pb5
#
DISCID=080fb114
DTITLE=Various Artist - Simply Blues
DYEAR=2011
DGENRE=Blues
TTITLE0=Robert Johnson - Cross Road Blues
TTITLE1=Little Junior's Blue Flames - Feelin' Good
TTITLE2=Big Joe Turner - Boogie Woogie Country Girl
TTITLE3=Clarence Gatemouth Brown - Okie Dokie Stomp
TTITLE4=Blind Blake - Diddie Wa Diddie
TTITLE5=Etta James - The Wallflower
TTITLE6=The Yardbirds (feat. Eric Clapton) - Smokestack Lightnin'
TTITLE7=Otis Rush - I can't quit you Baby
TTITLE8=Santana - Every day I have the blues
TTITLE9=Billie Holiday - Long Gone Blues
TTITLE10=Johnny 'Guitar' Watson - Three Hours Past Midnight
TTITLE11=Sonny Terry - Whoopin' the Blues
TTITLE12=Son House - My Black Mama
TTITLE13=Billy Boy Arnold - I wish I would
TTITLE14=Lowell Fulson - Reconsider Baby
TTITLE15=Mississippi John Hurt - Candy Man blues
TTITLE16=Jazz Gillum with Big Bill Broonzy - Key To The Highway
TTITLE17=Ella Fitzgerald - I Got It Bad And That Ain't Good
TTITLE18=Eddie Boyd - Five Long Years
TTITLE19=Peggy Lee - Blues In The Night
EXTD=
EXTT0=
EXTT1=
EXTT2=
EXTT3=
EXTT4=
EXTT5=
EXTT6=
EXTT7=
EXTT8=
EXTT9=
EXTT10=
EXTT11=
EXTT12=
EXTT13=
EXTT14=
EXTT15=
EXTT16=
EXTT17=
EXTT18=
EXTT19=
PLAYORDER=
